PathFileType	4	(X/Y/Z)	c:/Users/goper/Files/vsCode/490R/osim_files/A05/A05_Fast_05.trc
DataRate	CameraRate	NumFrames	NumMarkers	Units                	OrigDataRate	OrigDataStartFrame	OrigNumFrames
250.00	250.00	4	36	mm	250.0	883	2352
                Frame#	Time	LPSIS			LASIS			LTH1			LTH2			LTH3			LTH4			LLFE			LMFE			LSH1			LSH2			LSH3			LSH4			LLMAL			LMMAL			LCAL			LMTP5			LTOE			LMTP1			RPSIS			RASIS			RTH1			RTH2			RTH3			RTH4			RLFE			RMFE			RSH1			RSH2			RSH3			RSH4			RLMAL			RMMAL			RCAL			RMTP1			RTOE			RMTP5		
		X1	Y1	Z1	X2	Y2	Z2	X3	Y3	Z3	X4	Y4	Z4	X5	Y5	Z5	X6	Y6	Z6	X7	Y7	Z7	X8	Y8	Z8	X9	Y9	Z9	X10	Y10	Z10	X11	Y11	Z11	X12	Y12	Z12	X13	Y13	Z13	X14	Y14	Z14	X15	Y15	Z15	X16	Y16	Z16	X17	Y17	Z17	X18	Y18	Z18	X19	Y19	Z19	X20	Y20	Z20	X21	Y21	Z21	X22	Y22	Z22	X23	Y23	Z23	X24	Y24	Z24	X25	Y25	Z25	X26	Y26	Z26	X27	Y27	Z27	X28	Y28	Z28	X29	Y29	Z29	X30	Y30	Z30	X31	Y31	Z31	X32	Y32	Z32	X33	Y33	Z33	X34	Y34	Z34	X35	Y35	Z35	X36	Y36	Z36

883	3.52800	127.26394	992.55750	325.74545	-73.13503	940.39941	411.37405	18.43620	653.38086	461.50055	-3.29627	617.26538	462.73721	-37.78783	677.97131	476.93097	-51.59561	636.62488	474.17389	-103.56510	466.13980	448.90842	-97.31457	462.86752	349.25256	-85.57231	367.16138	462.24835	-93.47259	321.73294	467.22357	0.00000	0.00000	0.00000	-144.86763	323.77856	453.52112	-154.21515	109.38635	461.15213	-147.60500	111.51921	371.32425	-75.44366	53.56824	415.39142	-289.04147	58.71722	481.28360	-333.06796	85.85988	416.47607	-289.79990	74.02905	370.59979	126.96172	998.46191	244.97906	-41.51783	951.92682	115.01431	95.12346	595.71906	67.16277	93.20746	553.72687	73.45332	35.42384	594.38287	83.26530	44.76680	548.54919	89.87109	133.28828	518.76605	81.85059	102.90470	486.81311	216.87117	286.26501	301.47556	90.62366	308.23315	259.72116	99.81786	234.15356	266.98590	90.15615	264.38202	229.22435	96.68641	356.95020	157.27850	116.93216	296.29843	155.26947	198.58920	421.87863	115.11441	194.80960	223.86494	56.27180	171.15770	199.79964	59.28207	116.44180	269.88742	49.25381	62.45341
884	3.53200	122.91605	992.87799	325.94348	-77.37076	940.54651	412.08710	14.64456	654.11798	462.36096	-6.27495	617.54382	463.38568	-40.91600	678.14722	477.97043	-54.55817	636.56995	475.18369	-106.06979	466.17120	449.80823	-100.51810	463.13196	350.02448	-87.53246	367.16437	462.69434	-95.10234	321.70749	467.58051	0.00000	0.00000	0.00000	-146.62910	323.47089	454.21835	-154.64024	109.24645	461.20541	-148.23430	111.43481	371.51599	-75.65542	53.79975	415.40027	-289.27060	57.70733	481.52686	-333.63376	84.58446	416.74384	-290.35437	73.04283	370.88895	122.46102	998.59918	245.21712	-46.04551	952.10858	115.75542	88.95454	595.75171	66.87166	86.85609	553.72711	72.94106	29.25335	594.58734	82.74821	38.26833	548.62488	89.23599	126.88960	518.70752	81.49003	96.05382	486.34824	216.24594	282.22717	303.48221	90.51340	304.79114	261.94104	99.61417	230.53256	268.38446	89.56421	261.22787	231.00407	96.22766	354.46744	160.02330	116.89672	293.23071	157.03236	198.04970	419.75366	118.85255	194.93097	223.66446	56.31312	170.70366	199.54607	59.10389	116.63651	269.52161	49.67749	62.51689
885	3.53600	118.61778	993.30573	326.13022	-81.51560	940.82336	412.94061	12.18524	654.10785	462.73080	-9.27760	617.83887	464.03522	-43.94268	678.30090	478.74619	-57.54312	636.80542	475.98630	-108.04616	466.24561	451.98404	-104.31100	463.26071	350.54880	-89.36395	367.27393	463.14923	-96.63194	321.78802	467.94952	0.00000	0.00000	0.00000	-148.62053	323.33011	454.60080	-155.00096	109.08206	461.32886	-148.77101	111.39445	371.73462	-75.82735	54.02992	415.43912	-289.46945	56.74594	481.76892	-333.49387	83.20075	417.51117	-290.67267	72.41070	371.14078	117.98150	998.84833	245.42517	-50.61546	952.30096	116.61853	82.65063	595.76746	66.52904	80.36941	553.73175	72.31403	22.83499	594.73926	82.18504	31.64626	548.78357	88.48757	120.26107	518.71265	81.02575	89.05335	485.76703	215.56213	277.99933	305.59598	90.29753	301.12909	264.21124	99.38291	226.47318	269.73892	88.74531	257.76505	232.85518	95.66698	352.05328	163.12399	116.81408	290.05505	158.89908	197.43135	417.14670	122.36820	195.38239	223.37242	56.37337	170.20552	199.52342	58.94136	116.32290	269.06229	50.07748	62.57724
886	3.54000	114.32440	993.74487	326.28424	-85.59373	941.06781	413.68628	9.14616	654.54279	463.36624	-12.26367	618.14758	464.69324	-46.95683	678.52246	479.75040	-60.55561	636.96820	476.88239	-110.51895	466.21082	452.71393	-106.83447	463.30453	351.28552	-91.20792	367.25546	463.61182	-98.15344	322.03757	468.16397	0.00000	0.00000	0.00000	-149.63397	323.18695	455.76700	-155.31735	108.93792	461.48074	-149.29065	111.33994	372.01340	-76.00939	54.20449	415.44836	-289.56247	55.83151	482.08777	-333.80161	82.23515	417.90784	-291.14346	71.79874	371.47150	113.54441	999.14978	245.57658	-55.22221	952.53638	117.49293	76.13570	595.85059	66.02945	73.61060	553.73596	71.58594	17.01664	595.61011	80.97345	24.79180	548.90198	87.59544	113.36560	518.70526	80.52378	81.73119	485.24139	214.84470	273.40781	307.78384	90.01962	297.22882	266.60168	99.11501	222.73718	271.35257	87.95991	254.07391	234.83197	95.19481	348.88803	165.93742	116.78307	286.47583	160.81088	196.77747	414.59201	126.63454	195.56015	223.08897	56.38660	169.72719	199.24623	58.80735	116.25885	268.54617	50.58490	62.68183
